<svg width="17" height="17" viewBox="0 0 17 17" fill="none" xmlns="http://www.w3.org/2000/svg">
<path d="M11 11.5V16.5C11 17.3284 11.6716 18 12.5 18H16.5C17.3284 18 18 17.3284 18 16.5V11.5C18 10.6716 17.3284 10 16.5 10H12.5C11.6716 10 11 10.6716 11 11.5Z" fill="#667185"/>
<path d="M4.33126e-07 11.5L6.51683e-07 16.5C6.87894e-07 17.3284 0.671574 18 1.5 18H5.5C6.32843 18 7 17.3284 7 16.5V11.5C7 10.6716 6.32843 10 5.5 10H1.5C0.671573 10 3.96914e-07 10.6716 4.33126e-07 11.5Z" fill="#667185"/>
<path d="M0 1.5L1.74846e-07 5.5C2.11057e-07 6.32843 0.671573 7 1.5 7L16.5 7C17.3284 7 18 6.32843 18 5.5V1.5C18 0.671573 17.3284 -3.62117e-08 16.5 0L1.5 6.55671e-07C0.671573 6.91882e-07 -3.62117e-08 0.671574 0 1.5Z" fill="#667185"/>
</svg>
